{"title":"Wonders of the solar system 1/5 Empire of the sun","uid":6643408,"size":791323436,"categoryP":"video","categoryS":"tv_shows","magnet":"?xt=urn:btih:0e5403607c9b5ee216c7334df5ef0955aa1e6e67&amp;dn=Wonders+of+the+solar+system+1%2F5+Empire+of+the+sun&amp;tr=udp%3A%2F%2Ftracker.openbittorrent.com%3A80&amp;tr=udp%3A%2F%2Fopen.demonii.com%3A1337&amp;tr=udp%3A%2F%2Ftracker.coppersurfer.tk%3A6969&amp;tr=udp%3A%2F%2Fexodus.desync.com%3A6969","seeders":2,"leechers":0,"uploader":"stu181","files":1,"time":1314839999,"description":"Wonders of the solar system 1/5 Empire of the sun\n\nbrought to you by the Pro Torrent team  &lt;a href=&quot; http://www.protorrent.co.uk&quot; rel=&quot;nofollow&quot; target=&quot;_NEW&quot;&gt; http://www.protorrent.co.uk&lt;/a&gt;\n\nProfessor Brian Cox describes how the laws of nature have carved natural wonders across the solar system. He explores the powerhouse of the all, the sun.\n\nFormat                           : AVI\nFormat/Info                      : Audio Video Interleave\nFormat profile                   : OpenDML\nFormat settings                  : rec\nFile size                        : 755 MiB\nDuration                         : 58mn 22s\nOverall bit rate                 : 1 807 Kbps\nWriting application              : AVI-Mux GUI 1.17.8.3, Feb 16 201019:42:50\n\nVideo\nID                               : 0\nFormat                           : MPEG-4 Visual\nFormat profile                   : Advanced Simple@L5\nFormat settings, BVOP            : 1\nFormat settings, QPel            : No\nFormat settings, GMC             : No warppoints\nFormat settings, Matrix          : Default (H.263)\nMuxing mode                      : Packed bitstream\nCodec ID                         : XVID\nCodec ID/Hint                    : XviD\nDuration                         : 58mn 22s\nBit rate                         : 1 610 Kbps\nWidth                            : 704 pixels\nHeight                           : 400 pixels\nDisplay aspect ratio             : 16:9\nFrame rate                       : 25.000 fps\nColor space                      : YUV\nChroma subsampling               : 4:2:0\nBit depth                        : 8 bits\nScan type                        : Progressive\nCompression mode                 : Lossy\nBits/(Pixel*Frame)               : 0.229\nStream size                      : 672 MiB (89%)\nWriting library                  : XviD 1.2.1 (UTC 2008-12-04)\n\nAudio\nID                               : 1\nFormat                           : AC-3\nFormat/Info                      : Audio Coding 3\nMode extension                   : CM (complete main)\nCodec ID                         : 2000\nDuration                         : 58mn 21s\nBit rate mode                    : Constant\nBit rate                         : 192 Kbps\nChannel(s)                       : 2 channels\nChannel positions                : Front: L R\nSampling rate                    : 44.1 KHz\nBit depth                        : 16 bits\nCompression mode                 : Lossy\nDelay relative to video          : 34ms\nStream size                      : 80.1 MiB (11%)\nAlignment                        : Aligned on interleaves\nInterleave, duration             : 70 ms (1.74 video frames)\nInterleave, preload duration     : 208 ms\nTitle                            : Wonders of the Solar System E01 NO 157d ","torrent":{"xt":"urn:btih:0e5403607c9b5ee216c7334df5ef0955aa1e6e67","amp;dn":"Wonders+of+the+solar+system+1%2F5+Empire+of+the+sun","amp;tr":["udp%3A%2F%2Ftracker.openbittorrent.com%3A80","udp%3A%2F%2Fopen.demonii.com%3A1337","udp%3A%2F%2Ftracker.coppersurfer.tk%3A6969","udp%3A%2F%2Fexodus.desync.com%3A6969"],"infoHash":"0e5403607c9b5ee216c7334df5ef0955aa1e6e67","infoHashBuffer":{"type":"Buffer","data":[14,84,3,96,124,155,94,226,22,199,51,77,245,239,9,85,170,30,110,103]},"announce":[],"urlList":[]}}